<svg xmlns="http://www.w3.org/2000/svg" viewBox="0 0 32 32" fill="none">
  <path d="M4 9C4 6 10 3 16 3C22 3 28 6 28 9V20C28 27 16 32 16 32C16 32 4 27 4 20V9Z" fill="#1C64F2"/>
  <path d="M9 12.5C9 12.5 12.5 10.5 16 12.5C19.5 10.5 23 12.5 23 12.5" stroke="#fff" stroke-width="2" stroke-linecap="round" fill="none"/>
  <path d="M9 17.5C9 17.5 12.5 15.5 16 17.5C19.5 15.5 23 17.5 23 17.5" stroke="#fff" stroke-width="2" stroke-linecap="round" fill="none" opacity="0.7"/>
  <path d="M11 22.5C11 22.5 13.5 20.5 16 22.5C18.5 20.5 21 22.5 21 22.5" stroke="#fff" stroke-width="1.5" stroke-linecap="round" fill="none" opacity="0.4"/>
</svg>
