<svg xmlns="http://www.w3.org/2000/svg" viewBox="0 0 48 48" fill="none">
  <path d="M6 14C6 9 15 4 24 4C33 4 42 9 42 14V30C42 41 24 48 24 48C24 48 6 41 6 30V14Z" fill="#1C64F2"/>
  <path d="M14 19C14 19 19 16 24 19C29 16 34 19 34 19" stroke="#fff" stroke-width="3" stroke-linecap="round" fill="none"/>
  <path d="M14 27C14 27 19 24 24 27C29 24 34 27 34 27" stroke="#fff" stroke-width="3" stroke-linecap="round" fill="none" opacity="0.7"/>
  <path d="M17 35C17 35 20.5 32 24 35C27.5 32 31 35 31 35" stroke="#fff" stroke-width="2.5" stroke-linecap="round" fill="none" opacity="0.4"/>
</svg>
